<?xml version="1.0" encoding="UTF-8"?>
<svg xmlns="http://www.w3.org/2000/svg" viewBox="0 0 1109.77 576.36" preserveAspectRatio="none">
  <defs>
    <style>
      .cls-1 { fill: #606060; mix-blend-mode: multiply; opacity: .08;}
      .cls-2 { isolation: isolate; }
    </style>
  </defs>
  <g class="cls-2">
      <path class="cls-1" d="M0,453.82c8.3-54.89,70.03-108.84,113.91-144.26,43.88-35.42,101.45-54.37,158.42-52.14,59.65,2.33,115.67,26.58,172.2,45.28,56.52,18.7,118.97,31.98,175.19,12.44,69.36-24.11,111.37-91.05,147.8-153.34,36.43-62.29,78.29-129.27,147.56-153.62,72.62-25.52,162.25,10.88,194.69,79.07-.76,3.13,0,4.42,0,7.63v481.49S0,576.36,0,576.36C0,358.45,0,453.82,0,453.82Z"/>
  </g>
</svg>