<?xml version="1.0" encoding="UTF-8"?>
<svg xmlns="http://www.w3.org/2000/svg" viewBox="0 0 576.36 1078.28" preserveAspectRatio="none">
  <defs>
    <style> .cls-1 { fill: #b7f0f1; } </style>
  </defs>
  <path class="cls-1" d="M122.54,0c54.89,8.07,108.84,68.15,144.26,110.86,35.42,42.71,54.37,98.73,52.14,154.17-2.33,58.05-26.58,112.57-45.28,167.58-18.7,55.01-31.98,115.77-12.44,170.49,24.11,67.5,91.05,108.39,153.34,143.84,62.29,35.45,129.27,76.19,153.62,143.6,25.52,70.67-10.88,156.18-79.07,187.74-3.13-.74-4.42,0-7.63,0H0S0,0,0,0C217.91,0,122.54,0,122.54,0Z"/>
</svg>
