<?xml version="1.0" encoding="UTF-8"?>
<svg xmlns="http://www.w3.org/2000/svg" viewBox="0 0 441.34 132.79">
  <defs> <style> .cls-1 { fill: #006a73; } </style> </defs>
  <g>
    <path class="cls-1" d="M73.95,131.83c-6.27,0-9.4-.7-9.4-2.11l-2.22-42.36-12.89,42.89c-.28,.85-2.68,1.27-7.18,1.27s-6.83-.39-6.97-1.16l-13.31-43.42-1.48,42.15c-.07,1.06-1.41,1.78-4.01,2.17-2.61,.39-4.77,.58-6.5,.58s-3.4-.11-5.02-.32c-3.38-.49-5.04-1.37-4.96-2.64L2.43,60.21c0-1.69,4.29-2.54,12.89-2.54,2.54,0,5.63,.19,9.3,.58,3.66,.39,5.7,1.15,6.13,2.27l11.83,33.27,10.35-33.38c.63-1.83,5.49-2.75,14.58-2.75,2.6,0,5.72,.19,9.35,.58,3.63,.39,5.44,1.07,5.44,2.06l3.06,69.3c0,.78-1.37,1.34-4.12,1.69-2.75,.35-5.18,.53-7.29,.53Z"/>
    <path class="cls-1" d="M132.26,87.15c1.34,0,2.01,2.47,2.01,7.39,0,1.48-.16,3.22-.48,5.23-.32,2.01-.9,3.01-1.74,3.01h-13.42v10.56h19.44c1.2,0,2.01,1.55,2.43,4.65,.21,1.34,.32,2.76,.32,4.28s-.21,3.47-.63,5.86c-.42,2.39-1.13,3.59-2.11,3.59h-36.13c-2.68,0-4.01-1.09-4.01-3.27V60.53c0-1.83,.81-2.75,2.43-2.75h37.82c1.48,0,2.22,3.12,2.22,9.35s-.74,9.35-2.22,9.35h-19.54v10.67h13.63Z"/>
    <path class="cls-1" d="M210,129.41c0,1.48-3.31,2.22-9.93,2.22s-10.21-.53-10.77-1.58l-17.64-32.96v32.85c0,1.27-3.26,1.9-9.77,1.9s-9.77-.63-9.77-1.9V59.26c0-1.06,2.78-1.58,8.34-1.58,2.18,0,4.74,.19,7.66,.58,2.92,.39,4.7,1.11,5.33,2.17l16.9,32.54V59.79c0-1.34,3.27-2.01,9.82-2.01s9.82,.67,9.82,2.01v69.61Z"/>
    <path class="cls-1" d="M254.47,130.04c0,1.41-3.48,2.11-10.46,2.11s-10.46-.7-10.46-2.11v-53.03h-12.68c-1.2,0-2.04-1.62-2.54-4.86-.21-1.55-.32-3.13-.32-4.75s.11-3.2,.32-4.75c.49-3.24,1.34-4.86,2.54-4.86h45.95c1.2,0,2.04,1.62,2.54,4.86,.21,1.55,.32,3.13,.32,4.75s-.11,3.21-.32,4.75c-.49,3.24-1.34,4.86-2.54,4.86h-12.36v53.03Z"/>
    <path class="cls-1" d="M324.83,131.94c-6.13,0-9.44-.99-9.93-2.96l-3.49-13.63h-16.79l-3.06,13.1c-.42,2.18-3.8,3.27-10.14,3.27-3.38,0-5.88-.19-7.5-.58-1.62-.39-2.43-.69-2.43-.9l18.7-71.51c0-.56,4.82-.84,14.47-.84s14.47,.28,14.47,.84l18.27,71.62c0,.49-1.62,.88-4.86,1.16-3.24,.28-5.81,.42-7.71,.42Zm-27.57-30h11.09l-4.75-21.87h-.63l-5.7,21.87Z"/>
    <path class="cls-1" d="M353.45,113.56v-37.61h-7.5c-1.2,0-2.04-1.51-2.54-4.54-.21-1.48-.32-2.99-.32-4.54s.11-3.06,.32-4.54c.49-3.03,1.34-4.54,2.54-4.54h35.49c1.2,0,2.01,1.52,2.43,4.54,.28,1.48,.42,2.99,.42,4.54s-.14,3.06-.42,4.54c-.42,3.03-1.23,4.54-2.43,4.54h-7.08v37.61h7.39c1.2,0,2.04,1.52,2.54,4.54,.28,1.48,.42,2.99,.42,4.54s-.14,3.06-.42,4.54c-.49,3.03-1.34,4.54-2.54,4.54h-35.6c-1.2,0-2.01-1.51-2.43-4.54-.28-1.48-.42-2.99-.42-4.54s.14-3.06,.42-4.54c.42-3.03,1.23-4.54,2.43-4.54h7.29Z"/>
    <path class="cls-1" d="M396.65,105.95c1.34,1.06,3.64,2.5,6.92,4.33,3.27,1.83,6.41,2.75,9.4,2.75s4.49-1.16,4.49-3.49c0-1.06-.42-1.99-1.27-2.8-.84-.81-2.39-1.74-4.65-2.8-2.25-1.06-3.95-1.88-5.07-2.48-1.13-.6-2.62-1.58-4.49-2.96-1.87-1.37-3.29-2.8-4.28-4.28-2.82-4.01-4.23-9.12-4.23-15.32s2.31-11.42,6.92-15.69c4.61-4.26,10.65-6.39,18.12-6.39,5.07,0,9.75,.55,14.05,1.64,4.29,1.09,6.51,2.52,6.66,4.28v.63c0,2.47-.78,5.58-2.32,9.35-1.55,3.77-2.64,5.86-3.27,6.29-4.51-2.32-8.54-3.49-12.09-3.49s-5.33,1.27-5.33,3.8c0,1.55,1.3,2.92,3.91,4.12,.56,.28,1.37,.67,2.43,1.16,1.06,.49,2.27,1.07,3.64,1.74,1.37,.67,2.85,1.52,4.44,2.54,1.58,1.02,3.29,2.38,5.12,4.07,3.73,3.52,5.6,8.17,5.6,13.94,0,7.54-2.08,13.7-6.23,18.49-4.16,4.79-10.56,7.25-19.22,7.39-4.23,0-8.05-.35-11.46-1.06-3.42-.7-6.39-2.08-8.93-4.12-2.54-2.04-3.8-4.51-3.8-7.39s.53-5.76,1.58-8.61c1.06-2.85,2.18-4.74,3.38-5.65Z"/>
  </g>
  <g>
    <path class="cls-1" d="M150.39,.82h5.28V48.78h-4.32L120.38,9.45V48.78h-5.27V.82h5.07l30.21,38.43V.82Z"/>
    <path class="cls-1" d="M209.1,34.22c-1.19,2.99-2.85,5.63-5,7.91-2.15,2.28-4.73,4.1-7.74,5.45-3.01,1.35-6.35,2.02-10,2.02s-6.98-.66-9.97-1.99-5.56-3.12-7.71-5.38c-2.15-2.26-3.8-4.89-4.97-7.88-1.16-2.99-1.75-6.15-1.75-9.49s.59-6.5,1.78-9.49c1.19-2.99,2.85-5.63,5-7.91,2.15-2.28,4.73-4.1,7.74-5.45,3.01-1.35,6.35-2.02,10-2.02s6.98,.66,9.97,1.99c2.99,1.33,5.56,3.12,7.71,5.38s3.8,4.89,4.97,7.88c1.17,2.99,1.75,6.16,1.75,9.49s-.59,6.5-1.78,9.49Zm-5.24-17.09c-.94-2.42-2.25-4.52-3.94-6.3-1.69-1.78-3.69-3.2-5.99-4.25-2.31-1.05-4.83-1.58-7.57-1.58s-5.26,.51-7.57,1.54c-2.31,1.03-4.28,2.43-5.93,4.21-1.64,1.78-2.93,3.87-3.87,6.27-.94,2.4-1.4,4.97-1.4,7.71s.47,5.32,1.4,7.74c.94,2.42,2.25,4.52,3.94,6.3,1.69,1.78,3.69,3.2,5.99,4.25,2.31,1.05,4.83,1.58,7.57,1.58s5.26-.51,7.57-1.54c2.31-1.03,4.28-2.43,5.93-4.21,1.64-1.78,2.93-3.87,3.87-6.27,.94-2.4,1.4-4.97,1.4-7.71s-.47-5.32-1.4-7.74Z"/>
    <path class="cls-1" d="M231.98,48.78h-5.41V5.82h-16.1V.82h37.61V5.82h-16.1V48.78Z"/>
    <path class="cls-1" d="M291.65,48.78h-5.82l-5.62-12.67h-26.1l-5.69,12.67h-5.55L264.73,.48h5.07l21.85,48.3Zm-24.46-41.93l-10.96,24.46h21.85l-10.89-24.46Z"/>
    <path class="cls-1" d="M299.73,15.84c.37,.92,1.03,1.75,1.99,2.5,.96,.75,2.28,1.44,3.97,2.06s3.86,1.2,6.51,1.75c5.34,1.19,9.28,2.84,11.82,4.94,2.53,2.1,3.8,5.01,3.8,8.71,0,2.06-.41,3.94-1.22,5.63s-1.93,3.13-3.36,4.32c-1.43,1.19-3.14,2.1-5.15,2.74-2.01,.64-4.2,.96-6.58,.96-3.84,0-7.34-.62-10.52-1.86-3.17-1.24-6.2-3.15-9.08-5.75l3.36-3.97c2.51,2.28,5.05,3.99,7.6,5.1,2.56,1.12,5.5,1.68,8.84,1.68s5.83-.75,7.78-2.26c1.94-1.51,2.91-3.5,2.91-5.97,0-1.14-.18-2.16-.55-3.05-.37-.89-1.01-1.7-1.92-2.44-.92-.73-2.19-1.4-3.81-1.99-1.62-.6-3.7-1.17-6.21-1.72-2.75-.59-5.14-1.28-7.18-2.06-2.04-.78-3.72-1.71-5.05-2.81-1.33-1.1-2.31-2.38-2.95-3.84-.64-1.46-.96-3.2-.96-5.22s.39-3.68,1.17-5.28c.78-1.6,1.87-2.98,3.29-4.15,1.42-1.17,3.08-2.08,5-2.74,1.92-.66,4.02-1,6.3-1,3.52,0,6.59,.48,9.21,1.45,2.63,.97,5.17,2.42,7.64,4.37l-3.15,4.18c-2.24-1.83-4.49-3.15-6.75-3.97-2.26-.82-4.62-1.23-7.09-1.23-1.55,0-2.96,.21-4.21,.62-1.26,.41-2.33,.96-3.22,1.65-.89,.69-1.58,1.51-2.05,2.47-.48,.96-.72,1.99-.72,3.09s.18,2.17,.55,3.09Z"/>
  </g>
  <g>
    <rect class="cls-1" x=".21" y="25.86" width="97.13" height="2.38"/>
    <rect class="cls-1" x="344.22" y="25.86" width="97.13" height="2.38"/>
  </g>
</svg>