<?xml version="1.0" encoding="UTF-8"?>
<svg xmlns="http://www.w3.org/2000/svg" viewBox="0 0 485.68 348.28">
  <g class="cls-4">
    <g>
      <path id="planta1" class="cls-10" d="M382.2,227.96c-6.68-1.09-13.88,.21-19.89,3.31-5.97,3.08-11.43,9.32-13.36,15.58-3.81,2.75-7.51,5.66-11.09,8.71,8.12-8.58,11.45-21.57,8.44-33.08-.04-.16-.09-.32-.13-.49-.16,.1-.33,.2-.49,.31-5.71,3.63-10.21,9.41-12.63,15.73-2.4,6.27-2.32,14.55,.42,20.5,.09,.21,.19,.42,.3,.63-.84,.77-1.68,1.54-2.51,2.32-3.4,3.21-6.66,6.57-9.79,10.05,6.89-9.64,8.4-22.99,3.81-34-.07-.15-.13-.31-.2-.46-.15,.12-.29,.25-.44,.37-5.15,4.39-8.81,10.73-10.32,17.33-1.5,6.54-.28,14.73,3.27,20.25,.11,.19,.23,.37,.36,.54-2.62,3.1-5.13,6.3-7.53,9.58-.76,1.04-1.5,2.09-2.24,3.14,5.78-10.3,5.84-23.7,.11-34.12-.08-.15-.16-.29-.24-.44-.13,.13-.27,.28-.4,.42-4.66,4.92-7.61,11.61-8.41,18.33-.8,6.67,1.3,14.68,5.41,19.78,.14,.19,.3,.38,.46,.56,.06-.08,.12-.15,.19-.23,0,0,0,0,0,0-2.75,4.21-5.33,8.53-7.71,12.96,4.49-11.61,2.04-25.65-6.04-35.2-.11-.13-.22-.26-.33-.38-.11,.16-.21,.32-.31,.49-3.59,5.74-5.16,12.89-4.61,19.64,.54,6.69,4.18,14.13,9.23,18.32,.12,.11,.26,.21,.39,.32-.57,1.12-1.13,2.24-1.68,3.37-1.08,2.22-2.1,4.46-3.08,6.72,.2,.07,.39,.15,.59,.24,1.49-3.44,3.09-6.84,4.81-10.17,1.52-2.96,3.13-5.88,4.82-8.75,.04,.02,.08,.03,.12,.05,12.7,4.95,28.27,1.87,37.7-7.97,.07-.07,.14-.14,.21-.22-.2-.13-.4-.26-.61-.38-5.59-3.41-13.81-4.45-20.32-2.79-6.05,1.54-11.84,4.9-16.05,9.53,3.33-5.52,6.96-10.86,10.88-15.98,.32-.42,.65-.83,.97-1.24,.06,.02,.13,.05,.19,.07,12.7,4.95,28.27,1.87,37.7-7.97,.07-.07,.14-.14,.21-.22-.2-.13-.4-.26-.61-.38-5.59-3.41-13.81-4.45-20.32-2.79-5.32,1.35-10.44,4.11-14.46,7.9,4.26-5.18,8.82-10.12,13.66-14.77,.12,.05,.24,.1,.37,.14,12.7,4.95,28.27,1.87,37.7-7.97,.07-.07,.14-.14,.21-.22-.2-.13-.4-.26-.61-.38-5.59-3.41-13.81-4.45-20.32-2.79-3.26,.83-6.44,2.18-9.34,3.98,3.36-2.85,6.83-5.58,10.39-8.16,13.59,1.11,27.29-6.92,33.5-19.06,.08-.14,.15-.29,.23-.44-.19-.04-.38-.07-.58-.1Z"/>
      <path id="planta2" class="cls-10" d="M202.95,347.38c-8.13-6.63-15.65-14-22.45-21.98-.81-.95-1.61-1.92-2.41-2.89-.15,.08-.29,.16-.45,.23-5.86,2.93-14.14,3.28-20.48,1.09-6.4-2.21-12.31-6.52-16.13-12.11-.11-.16-.22-.32-.32-.48,.16-.05,.32-.1,.48-.14,12-3.56,25.84-.15,34.66,8.62-3.1-3.96-6.02-8.06-8.77-12.27,0,0,0,0,0,0,.05,.09,.09,.18,.14,.27-.23,.07-.46,.14-.69,.19-6.32,1.71-14.5,.41-20.29-3-5.83-3.44-10.78-8.83-13.41-15.07-.08-.18-.15-.36-.22-.53,.17-.02,.33-.03,.5-.05,11.85-1.05,24.09,4.39,31.2,13.82-.67-1.1-1.33-2.2-1.97-3.31-2.04-3.51-3.95-7.09-5.74-10.74-.21,.04-.43,.08-.64,.11-6.47,1.03-14.47-1.14-19.85-5.15-5.43-4.04-9.77-9.93-11.72-16.42-.06-.19-.12-.37-.16-.55,.17,0,.34,0,.5,0,11.93,.22,23.55,6.97,29.6,17.16-1.93-4.26-3.69-8.6-5.27-13-.38-1.07-.75-2.15-1.12-3.23-.23,.01-.46,.02-.69,.02-6.55,.12-14.17-3.14-18.94-7.85-4.82-4.75-8.3-11.19-9.33-17.89-.03-.19-.06-.38-.09-.57,.17,.03,.33,.05,.5,.08,11.75,1.87,22.3,10.14,26.9,21.03-1.36-4.5-2.53-9.06-3.52-13.65-4.95-4.29-8.47-11.79-8.89-18.5-.42-6.75,1.28-13.86,4.96-19.54,.11-.17,.22-.33,.33-.49,.11,.13,.22,.25,.31,.39,8.61,10.56,10.46,26.34,3.98,38.33,.93,4.3,2.04,8.57,3.3,12.8-.48-3.38-.44-6.83,.11-10.15,1.1-6.62,5.35-13.73,10.72-17.48,.19-.14,.39-.28,.59-.41,.04,.09,.08,.18,.12,.28,5.21,12.59,1.78,28.09-7.86,37.72-.09,.09-.19,.19-.28,.28,2.31,6.3,5,12.46,8.03,18.45-1.86-5.21-2.32-11-1.42-16.41,1.1-6.62,5.35-13.73,10.72-17.48,.19-.14,.39-.28,.59-.41,.04,.09,.08,.18,.12,.28,5.21,12.59,1.78,28.09-7.86,37.72-.05,.05-.1,.1-.14,.14,.25,.46,.49,.93,.75,1.39,3.11,5.65,6.54,11.12,10.26,16.38-2.55-5.72-3.3-12.37-2.27-18.53,1.1-6.62,5.35-13.73,10.72-17.48,.19-.14,.39-.28,.59-.41,.04,.09,.08,.18,.12,.28,5.21,12.59,1.78,28.09-7.86,37.72-.03,.03-.06,.06-.09,.09,1.95,2.7,3.97,5.35,6.07,7.93,6.58,8.09,13.9,15.59,21.82,22.37,1,.85,2,1.69,3.01,2.51,.32,.26-.06,.77-.37,.51Z"/>
      <path id="planta3" class="cls-10" d="M142.3,327.81c-10.42,1.15-20.95,1.36-31.41,.61-1.25-.09-2.5-.19-3.75-.31-.05,.16-.09,.32-.15,.48-2.01,6.24-7.56,12.38-13.57,15.37-6.06,3.02-13.28,4.22-19.94,3.02-.19-.03-.38-.06-.57-.1,.08-.15,.16-.3,.23-.45,5.87-11.05,17.99-18.55,30.44-18.69-5-.56-9.97-1.35-14.9-2.34,0,0,0,0,0,0,.1,.03,.19,.06,.29,.09-.11,.21-.22,.43-.35,.63-3.21,5.71-9.87,10.64-16.35,12.38-6.54,1.75-13.85,1.5-20.15-.99-.18-.07-.36-.14-.54-.21,.11-.13,.21-.26,.32-.39,7.55-9.19,20.01-14.11,31.72-12.58-1.25-.29-2.5-.59-3.75-.91-3.93-1-7.83-2.15-11.69-3.43-.12,.18-.24,.36-.37,.53-3.8,5.34-10.95,9.52-17.58,10.56-6.69,1.05-13.93,.01-19.93-3.14-.17-.09-.35-.18-.51-.27,.12-.12,.24-.24,.36-.35,8.51-8.36,21.48-11.92,32.98-9.1-4.39-1.61-8.72-3.39-12.97-5.35-1.04-.48-2.06-.97-3.09-1.47-.15,.17-.31,.35-.47,.51-4.5,4.76-12.17,7.91-18.88,8.01-6.77,.11-13.8-1.92-19.3-5.88-.16-.11-.32-.22-.47-.34,.13-.1,.27-.2,.4-.3,9.57-7.08,22.86-8.81,33.85-4.46-4.16-2.19-8.24-4.54-12.21-7.05-6.53,.53-14.35-2.22-19.43-6.62-5.11-4.43-9-10.62-10.46-17.23-.05-.2-.08-.39-.12-.58,.17,.01,.33,.02,.5,.05,13.57,1.26,26.12,10.99,30.14,24.02,3.72,2.35,7.54,4.55,11.44,6.61-2.75-2.03-5.18-4.47-7.16-7.19-3.96-5.42-6.05-13.44-4.96-19.9,.03-.24,.08-.47,.13-.71,.09,.04,.18,.07,.28,.11,12.63,5.1,21.29,18.41,21.41,32.04,0,.13,0,.26,0,.39,6.12,2.76,12.39,5.16,18.79,7.19-5.02-2.32-9.48-6.05-12.71-10.49-3.96-5.42-6.05-13.44-4.96-19.9,.03-.24,.08-.47,.13-.71,.09,.04,.18,.07,.28,.11,12.63,5.1,21.29,18.41,21.41,32.04,0,.07,0,.14,0,.2,.51,.15,1.01,.3,1.51,.44,6.21,1.74,12.51,3.12,18.87,4.16-5.87-2.19-11.14-6.31-14.82-11.36-3.96-5.42-6.05-13.44-4.96-19.9,.03-.24,.08-.47,.13-.71,.09,.04,.18,.07,.28,.11,12.63,5.1,21.29,18.41,21.41,32.04,0,.04,0,.09,0,.13,3.29,.5,6.6,.91,9.91,1.22,10.38,.97,20.86,1.01,31.25,.1,1.31-.12,2.61-.25,3.9-.39,.41-.04,.51,.58,.1,.62Z"/>
      <path id="planta4" class="cls-10" d="M343.38,324.52c10.42,1.15,20.95,1.36,31.41,.61,1.25-.09,2.5-.19,3.75-.31,.05,.16,.09,.32,.15,.48,2.01,6.24,7.56,12.38,13.57,15.37,6.06,3.02,13.28,4.22,19.94,3.02,.19-.03,.38-.06,.57-.1-.08-.15-.16-.3-.23-.45-5.87-11.05-17.99-18.55-30.44-18.69,5-.56,9.97-1.35,14.9-2.34,0,0,0,0,0,0-.1,.03-.19,.06-.29,.09,.11,.21,.22,.43,.35,.63,3.21,5.71,9.87,10.64,16.35,12.38,6.54,1.75,13.85,1.5,20.15-.99,.18-.07,.36-.14,.54-.21-.11-.13-.21-.26-.32-.39-7.55-9.19-20.01-14.11-31.72-12.58,1.25-.29,2.5-.59,3.75-.91,3.93-1,7.83-2.15,11.69-3.43,.12,.18,.24,.36,.37,.53,3.8,5.34,10.95,9.52,17.58,10.56,6.69,1.05,13.93,.01,19.93-3.14,.17-.09,.35-.18,.51-.27-.12-.12-.24-.24-.36-.35-8.51-8.36-21.48-11.92-32.98-9.1,4.39-1.61,8.72-3.39,12.97-5.35,1.04-.48,2.06-.97,3.09-1.47,.15,.17,.31,.35,.47,.51,4.5,4.76,12.17,7.91,18.88,8.01,6.77,.11,13.8-1.92,19.3-5.88,.16-.11,.32-.22,.47-.34-.13-.1-.27-.2-.4-.3-9.57-7.08-22.86-8.81-33.85-4.46,4.16-2.19,8.24-4.54,12.21-7.05,6.53,.53,14.35-2.22,19.43-6.62,5.11-4.43,9-10.62,10.46-17.23,.05-.2,.08-.39,.12-.58-.17,.01-.33,.02-.5,.05-13.57,1.26-26.12,10.99-30.14,24.02-3.72,2.35-7.54,4.55-11.44,6.61,2.75-2.03,5.18-4.47,7.16-7.19,3.96-5.42,6.05-13.44,4.96-19.9-.03-.24-.08-.47-.13-.71-.09,.04-.18,.07-.28,.11-12.63,5.1-21.29,18.41-21.41,32.04,0,.13,0,.26,0,.39-6.12,2.76-12.39,5.16-18.79,7.19,5.02-2.32,9.48-6.05,12.71-10.49,3.96-5.42,6.05-13.44,4.96-19.9-.03-.24-.08-.47-.13-.71-.09,.04-.18,.07-.28,.11-12.63,5.1-21.29,18.41-21.41,32.04,0,.07,0,.14,0,.2-.51,.15-1.01,.3-1.51,.44-6.21,1.74-12.51,3.12-18.87,4.16,5.87-2.19,11.14-6.31,14.82-11.36,3.96-5.42,6.05-13.44,4.96-19.9-.03-.24-.08-.47-.13-.71-.09,.04-.18,.07-.28,.11-12.63,5.1-21.29,18.41-21.41,32.04,0,.04,0,.09,0,.13-3.29,.5-6.6,.91-9.91,1.22-10.38,.97-20.86,1.01-31.25,.1-1.31-.12-2.61-.25-3.9-.39-.41-.04-.51,.58-.1,.62Z"/>
      <path id="planta5" class="cls-10" d="M132.67,344.16h35.42c-.17-.73-.36-1.46-.57-2.18-1.05-3.6-2.75-7.3-5.97-9.24-.48-.29-1.01-.51-1.59-.65-.22-.06-.44-.11-.67-.15-3.24-.53-7.31,.82-8.42,3.59-.02-9.35-2.71-18.68-7.71-26.58-1.49-2.37-3.23-4.65-5.52-6.26-1.53-1.08-3.35-1.82-5.21-1.99-.22-.02-.44-.03-.67-.03-.69-.01-1.38,.06-2.06,.23-2.72,.67-6,3.12-6.05,5.92-.74-7.53-3.49-14.84-7.9-20.98-1.91-2.67-4.19-5.15-7.06-6.74-1.89-1.04-4.07-1.65-6.22-1.6-.24,0-.46,.02-.69,.04-.87,.07-1.74,.26-2.56,.58-3.06,1.19-5.34,4.07-5,7.33-7.56-11.07-20.65-18.14-34.04-18.4-2.64-.05-5.64,.38-7.63,1.92-.19,.14-.37,.3-.54,.46-.45,.44-.83,.97-1.12,1.57-1.22,2.57-.1,5.77,1.91,7.78,2.01,2.02,4.73,3.12,7.38,4.18,8.04,3.2,15.98,8.36,24.02,11.57-3.41-.45-7.11,.41-9.55,2.84-.73,.73-1.32,1.6-1.72,2.56-.09,.2-.17,.41-.25,.61-.72,2.08-.63,4.42,.54,6.28,1.27,2.03,3.55,3.21,5.88,3.77,2.33,.55,4.74,.54,7.13,.71,8.24,.57,16.15,2.88,23.1,7.34-2.99,.07-6.08,.39-8.67,1.9-1.81,1.06-3.29,2.83-3.83,4.81-.06,.21-.11,.43-.14,.65-.11,.65-.11,1.31,.01,1.97,.52,2.76,3.06,4.76,5.74,5.63,2.67,.86,5.54,.84,8.35,1.1,8.15,.76,15.66,4.21,21.88,9.47Z"/>
      <path id="planta6" class="cls-10" d="M349.96,344.16h-35.42c.17-.73,.36-1.46,.57-2.18,1.05-3.6,2.75-7.3,5.97-9.24,.48-.29,1.01-.51,1.59-.65,.22-.06,.44-.11,.67-.15,3.24-.53,7.31,.82,8.42,3.59,.02-9.35,2.71-18.68,7.71-26.58,1.49-2.37,3.23-4.65,5.52-6.26,1.53-1.08,3.35-1.82,5.21-1.99,.22-.02,.44-.03,.67-.03,.69-.01,1.38,.06,2.06,.23,2.72,.67,6,3.12,6.05,5.92,.74-7.53,3.49-14.84,7.9-20.98,1.91-2.67,4.19-5.15,7.06-6.74,1.89-1.04,4.07-1.65,6.22-1.6,.24,0,.46,.02,.69,.04,.87,.07,1.74,.26,2.56,.58,3.06,1.19,5.34,4.07,5,7.33,7.56-11.07,20.65-18.14,34.04-18.4,2.64-.05,5.64,.38,7.63,1.92,.19,.14,.37,.3,.54,.46,.45,.44,.83,.97,1.12,1.57,1.22,2.57,.1,5.77-1.91,7.78-2.01,2.02-4.73,3.12-7.38,4.18-8.04,3.2-15.98,8.36-24.02,11.57,3.41-.45,7.11,.41,9.55,2.84,.73,.73,1.32,1.6,1.72,2.56,.09,.2,.17,.41,.25,.61,.72,2.08,.63,4.42-.54,6.28-1.27,2.03-3.55,3.21-5.88,3.77-2.33,.55-4.74,.54-7.13,.71-8.24,.57-16.15,2.88-23.1,7.34,2.99,.07,6.08,.39,8.67,1.9,1.81,1.06,3.29,2.83,3.83,4.81,.06,.21,.11,.43,.14,.65,.11,.65,.11,1.31-.01,1.97-.52,2.76-3.06,4.76-5.74,5.63-2.67,.86-5.54,.84-8.35,1.1-8.15,.76-15.66,4.21-21.88,9.47Z"/>
    </g>
    <g>
      <g>
        <g>
          <path class="cls-1" d="M309.07,348.28h-123.29c-26.24,0-35.22-34.93-12.26-47.62,13.34-7.37,27.89-12.81,43.28-15.94v-36.8h61.22v36.8c15.4,3.13,29.96,8.57,43.3,15.94,22.97,12.69,13.99,47.62-12.25,47.62Z"/>
          <path class="cls-14" d="M278.02,253.79v25.48c-43.08,6.2-54.6-15.49-54.6-15.49l54.6-9.98Z"/>
        </g>
        <g>
          <path class="cls-13" d="M341.42,348.28H153.43c-13.43,0-20.04-16.49-10.21-25.64,12.89-11.99,27.86-21.77,44.3-28.76,1.31-.57,2.63-1.11,3.96-1.64,3.74-1.48,7.91-1.39,11.57,.27,3.47,1.57,7.02,2.97,10.64,4.2,27.25,9.23,56.83,7.9,82.97-2.73,3.65-1.48,7.76-1.38,11.37,.19,1.24,.54,2.46,1.09,3.68,1.66,14.69,6.79,28.12,15.84,39.84,26.72,9.88,9.17,3.35,25.72-10.13,25.72Z"/>
          <path class="cls-7" d="M311.71,295.84c-.15,.13-.36,.26-.54,.39-38.55,25.5-86.56,23.78-123.64-2.34,3.34-1.44,6.74-2.75,10.22-3.94,5.15,2.65,10.47,4.91,15.95,6.77,29.1,9.86,60.86,7.67,88.24-5.02,3.32,1.26,6.59,2.65,9.78,4.14Z"/>
        </g>
      </g>
      <g>
        <g>
          <g id="flor1">
            <g>
              <path class="cls-10" d="M311.25,108.67c.07-.07,.14-.14,.22-.21,9.81-9.46,25.49-11.93,37.98-6.48,.15,.07,.31,.14,.46,.2-.12,.15-.25,.29-.38,.43-4.47,5.08-10.87,8.64-17.49,10.05-6.56,1.4-14.74,.04-20.19-3.59-.2-.12-.4-.26-.6-.4Z"/>
              <path class="cls-12" d="M311.25,108.67c.07-.07,.14-.14,.22-.21,4.16-.24,8.32-.63,12.46-1.17,8.63-1.12,17.16-2.9,25.52-5.31,.15,.07,.31,.14,.46,.2-.12,.15-.25,.29-.38,.43-9.56,2.75-19.35,4.67-29.24,5.75-2.81,.31-5.62,.55-8.44,.71-.2-.12-.4-.26-.6-.4Z"/>
            </g>
            <g>
              <path class="cls-10" d="M320.27,101.56c.07-.07,.14-.14,.22-.21,9.9-9.36,13.08-24.92,8.22-37.65-.06-.16-.12-.31-.18-.47-.15,.11-.3,.24-.45,.36-5.28,4.23-9.12,10.46-10.84,17.01-1.7,6.49-.72,14.72,2.66,20.33,.12,.21,.24,.41,.38,.61Z"/>
              <path class="cls-12" d="M320.27,101.56c.07-.07,.14-.14,.22-.21,.43-4.15,1.01-8.28,1.74-12.39,1.52-8.57,3.68-17.01,6.47-25.25-.06-.16-.12-.31-.18-.47-.15,.11-.3,.24-.45,.36-3.18,9.42-5.55,19.12-7.08,28.95-.43,2.79-.8,5.59-1.1,8.4,.12,.21,.24,.41,.38,.61Z"/>
            </g>
            <path class="cls-12" d="M284.06,127.72c4.58-2.85,9.09-5.81,13.53-8.87,4.43-3.05,8.78-6.19,13.07-9.44,4.3-3.26,8.53-6.61,12.67-10.06,4.15-3.45,8.21-6.99,12.2-10.63s7.89-7.36,11.7-11.18c.48-.48,.96-.96,1.44-1.45,.29-.29-.14-.76-.43-.47-3.78,3.82-7.64,7.55-11.58,11.2-3.96,3.66-8.01,7.23-12.14,10.7-4.11,3.46-8.29,6.82-12.55,10.09-4.28,3.28-8.63,6.47-13.05,9.55-4.41,3.07-8.88,6.04-13.42,8.91-.58,.36-1.15,.72-1.73,1.08-.34,.21-.05,.78,.29,.56Z"/>
            <g>
              <path class="cls-6" d="M343.25,80.45c-2.09-2.93-2.58-6.84-1.64-10.32,.93-3.47,3.19-6.51,6.01-8.74,2.82-2.23,6.19-3.69,9.66-4.65,.5,5.3-.87,10.8-3.84,15.22,5.54-2.38,12.06-2.1,17.41,.67-3.32,4.14-7.22,7.93-12.18,9.8-4.96,1.88-12.35,2.33-15.43-1.99Z"/>
              <path class="cls-3" d="M346.6,55.72c-4.12,3.03-7.34,7.37-8.68,12.31-1.34,4.94-.7,10.45,2.05,14.76,2.76,4.31,7.68,7.25,12.79,7.27,6.52,.03,12.16-4.32,17.08-8.61-4.17-1.93-8.71-2.86-13.3-2.69,4.55-4.87,7.8-10.86,9.27-17.35-6.9-.37-13.85,1.71-19.46,5.73,1.84-3.82,1.69-7.43,.23-11.41Z"/>
            </g>
          </g>
          <g id="flor2">
            <g>
              <path class="cls-10" d="M183.42,110.38c-.07-.08-.13-.15-.2-.22-9.15-10.09-11.13-25.85-5.3-38.17,.07-.15,.14-.3,.22-.45,.14,.13,.28,.26,.42,.39,4.94,4.63,8.29,11.13,9.5,17.8,1.2,6.61-.41,14.73-4.21,20.07-.13,.2-.27,.39-.42,.58Z"/>
              <path class="cls-12" d="M183.42,110.38c-.07-.08-.13-.15-.2-.22-.11-4.17-.37-8.33-.79-12.49-.86-8.66-2.36-17.25-4.52-25.68,.07-.15,.14-.3,.22-.45,.14,.13,.28,.26,.42,.39,2.45,9.64,4.07,19.49,4.84,29.4,.22,2.82,.37,5.64,.45,8.46-.13,.2-.27,.39-.42,.58Z"/>
            </g>
            <g>
              <path class="cls-10" d="M176.59,101.15c-.07-.08-.13-.15-.2-.23-9.05-10.18-24.5-13.85-37.37-9.38-.16,.06-.32,.11-.47,.17,.11,.15,.23,.31,.35,.46,4.07,5.41,10.18,9.45,16.67,11.36,6.44,1.9,14.69,1.18,20.41-2.03,.21-.11,.42-.23,.62-.36Z"/>
              <path class="cls-12" d="M176.59,101.15c-.07-.08-.13-.15-.2-.23-4.13-.56-8.25-1.27-12.33-2.13-8.51-1.78-16.89-4.21-25.04-7.26-.16,.06-.32,.11-.47,.17,.11,.15,.23,.31,.35,.46,9.32,3.47,18.93,6.14,28.71,7.98,2.78,.52,5.57,.98,8.36,1.36,.21-.11,.42-.23,.62-.36Z"/>
            </g>
            <path class="cls-12" d="M201.62,138.15c-2.71-4.66-5.52-9.27-8.44-13.8-2.91-4.52-5.92-8.97-9.03-13.35-3.12-4.4-6.34-8.73-9.66-12.98-3.32-4.25-6.74-8.43-10.25-12.52-3.51-4.1-7.11-8.11-10.81-12.04-.47-.5-.93-.99-1.4-1.48-.28-.3-.76,.12-.48,.41,3.7,3.89,7.31,7.87,10.83,11.92,3.53,4.07,6.98,8.23,10.32,12.46,3.33,4.21,6.56,8.5,9.7,12.86,3.15,4.38,6.2,8.83,9.14,13.34,2.93,4.5,5.76,9.06,8.48,13.69,.35,.59,.69,1.17,1.03,1.76,.2,.35,.78,.08,.57-.28Z"/>
            <g>
              <path class="cls-6" d="M156.2,77.52c-2.99,2-6.92,2.36-10.36,1.32-3.44-1.04-6.41-3.39-8.55-6.28-2.14-2.89-3.5-6.3-4.34-9.8,5.32-.34,10.77,1.2,15.1,4.31-2.21-5.61-1.72-12.12,1.21-17.38,4.04,3.44,7.7,7.46,9.42,12.48,1.72,5.02,1.95,12.41-2.47,15.36Z"/>
              <path class="cls-3" d="M131.59,73.4c2.9,4.21,7.14,7.56,12.03,9.06,4.89,1.49,10.42,1.03,14.82-1.59,4.39-2.62,7.48-7.45,7.66-12.56,.23-6.52-3.94-12.29-8.08-17.34-2.06,4.1-3.13,8.62-3.1,13.21-4.73-4.7-10.61-8.14-17.06-9.81-.58,6.88,1.28,13.89,5.12,19.63-3.76-1.95-7.38-1.92-11.4-.59Z"/>
            </g>
          </g>
          <g id="flor3">
            <g>
              <path class="cls-10" d="M258.54,72.05c-.01-.1-.02-.2-.04-.3-1.63-13.53,5.85-27.53,17.73-34.21,.15-.08,.29-.16,.44-.25,.04,.18,.08,.38,.12,.57,1.36,6.63,.33,13.88-2.53,20.01-2.84,6.08-8.85,11.78-15.04,13.95-.22,.09-.45,.16-.68,.23Z"/>
              <path class="cls-12" d="M258.54,72.05c-.01-.1-.02-.2-.04-.3,2.32-3.47,4.51-7.02,6.58-10.65,4.3-7.56,8.04-15.44,11.15-23.56,.15-.08,.29-.16,.44-.25,.04,.18,.08,.38,.12,.57-3.57,9.28-7.94,18.25-13.04,26.79-1.45,2.42-2.96,4.82-4.52,7.16-.22,.09-.45,.16-.68,.23Z"/>
            </g>
            <g>
              <path class="cls-10" d="M258.3,60.56c-.01-.1-.02-.2-.03-.3-1.5-13.54-11.99-25.46-25.08-29.25-.16-.05-.32-.09-.48-.14,0,.19,0,.38,.01,.58,.19,6.77,2.85,13.59,7.04,18.9,4.16,5.27,11.31,9.45,17.83,10.14,.24,.03,.48,.06,.72,.07Z"/>
              <path class="cls-12" d="M258.3,60.56c-.01-.1-.02-.2-.03-.3-3.05-2.85-6-5.8-8.84-8.86-5.92-6.38-11.35-13.19-16.24-20.39-.16-.05-.32-.09-.48-.14,0,.19,0,.38,.01,.58,5.6,8.22,11.9,15.96,18.82,23.1,1.96,2.03,3.98,4.01,6.04,5.94,.24,.03,.48,.06,.72,.07Z"/>
            </g>
            <path class="cls-12" d="M257.34,105.22c.48-5.37,.85-10.76,1.09-16.14,.24-5.37,.35-10.74,.35-16.11,0-5.39-.13-10.79-.39-16.18-.25-5.39-.63-10.77-1.12-16.14-.5-5.37-1.12-10.73-1.86-16.07-.09-.67-.19-1.35-.29-2.02-.06-.4-.69-.35-.63,.06,.77,5.31,1.42,10.65,1.95,15.99,.53,5.37,.94,10.75,1.22,16.14,.28,5.36,.44,10.73,.48,16.1,.04,5.39-.04,10.78-.25,16.17-.21,5.37-.54,10.73-.99,16.08-.06,.68-.12,1.36-.18,2.03-.04,.4,.59,.51,.63,.11Z"/>
            <g>
              <path class="cls-6" d="M255.31,29.5c-3.6-.1-7.01-2.07-9.22-4.91-2.21-2.84-3.27-6.47-3.35-10.07-.08-3.6,.79-7.17,2.12-10.51,4.53,2.8,8.09,7.21,9.83,12.24,1.44-5.85,5.6-10.88,11.03-13.49,1.31,5.14,1.97,10.54,.48,15.63-1.5,5.09-5.59,11.26-10.89,11.11Z"/>
              <path class="cls-3" d="M237.61,11.91c-.06,5.11,1.45,10.3,4.58,14.34,3.13,4.05,7.91,6.86,13.01,7.26,5.1,.4,10.41-1.76,13.51-5.82,3.95-5.19,3.89-12.31,3.43-18.82-4.05,2.16-7.53,5.22-10.16,8.99-1.14-6.56-3.95-12.77-8.25-17.86-4.45,5.28-6.99,12.08-7.16,18.98-1.94-3.77-4.91-5.83-8.96-7.07Z"/>
            </g>
          </g>
        </g>
        <g>
          <g>
            <g>
              <path class="cls-9" d="M317.37,120.76h-72.03c-3.32-8.64-3.23-19.97,.87-28.27-1.48-1.92-2.6-4.1-3.32-6.4-.65-2.06-.97-4.23-.93-6.39,.08-4.58,1.88-9.05,4.8-12.57-1.91-4.42-.95-9.57,1.71-13.6,.1-.15,.19-.31,.3-.45,4.16-1.76,9.18-1.35,12.99,1.07,3.65,2.31,6.11,6.38,6.47,10.68,.02,.2,.04,.4,.05,.61,.29-.13,.59-.26,.9-.38,3.91-1.54,9.07-2.22,13.58-.57,4.1,1.5,7.03,5.61,7.88,9.91,.02,.12,.05,.25,.07,.38,.67-.23,1.36-.41,2.05-.55,5.13-1.03,10.92,.34,15.03,3.51,4.53,3.49,7.2,9.26,6.95,14.97,0,.19-.02,.36-.03,.54,.27,.17,.53,.34,.78,.53,.02,0,.03,0,.04,.02,1.27,.89,2.39,1.98,3.37,3.21,2.15,2.71,3.53,6.08,3.87,9.48,.52,5.26-1.54,10.71-5.42,14.3Z"/>
              <g>
                <path class="cls-11" d="M263.6,73.67c-.46,1.47-.74,2.99-.81,4.54-.02,.52-.83,.52-.81,0,.25-5.06,2.57-9.92,6.24-13.38,.02,.2,.04,.4,.05,.61,.29-.13,.59-.26,.9-.38-2.58,2.3-4.54,5.3-5.57,8.62Z"/>
                <path class="cls-11" d="M284.9,85.21c-.03,.52-.84,.52-.81,0,.23-3.4,1.71-6.67,4.18-9.03,.72-.69,1.51-1.29,2.36-1.8,.02,.12,.05,.25,.07,.38,.67-.23,1.36-.41,2.05-.55-1.45,.59-2.77,1.45-3.91,2.54-2.31,2.21-3.73,5.27-3.95,8.46Z"/>
                <path class="cls-11" d="M301.28,92.76c4.37-1.33,9.09-1.34,13.46-.06,0,.19-.02,.36-.03,.54,.27,.17,.53,.34,.78,.53-4.5-1.53-9.44-1.62-14.01-.23-.49,.15-.71-.63-.21-.78Z"/>
                <path class="cls-11" d="M249.19,86.86c.5-.92,1.28-1.69,2.26-2.07,1.2-.47,2.51-.25,3.7,.14,1.3,.43,2.53,1,3.87,1.31,1.35,.31,2.74,.42,4.12,.34,2.61-.14,5.14-.99,7.31-2.45,2.25-1.51,4.04-3.64,5.18-6.09,.22-.47,.92-.06,.7,.41-1.6,3.44-4.47,6.21-7.93,7.71,7.51,1.92,15.33,3.75,23.07,2.21,2.14-.43,4.23-1.11,6.18-2.1,.46-.23,.87,.46,.41,.7-7.36,3.71-15.87,3.12-23.69,1.45-2.43-.52-4.84-1.14-7.24-1.75-.01,0-.02-.01-.03-.02-.34,.11-.69,.22-1.04,.3-2.48,.61-5.11,.61-7.59-.02-1.3-.33-2.51-.92-3.79-1.31-1.23-.38-2.55-.48-3.64,.31-2.51,1.81-1.77,5.28-.53,7.6,.24,.46-.45,.87-.7,.41-1.15-2.16-1.84-4.8-.61-7.07Z"/>
              </g>
            </g>
            <g>
              <path class="cls-9" d="M253.95,86.39c-.72,2.19-1.81,4.27-3.23,6.1,4.1,8.3,4.19,19.63,.87,28.27h-72.03c-1.63-1.51-2.94-3.35-3.87-5.37-1.29-2.77-1.85-5.88-1.55-8.93,.49-4.93,3.19-9.82,7.25-12.69,0,0,.02-.02,.04-.02,.18-.13,.36-.25,.55-.37,.07-.06,.15-.11,.23-.15-.02-.18-.02-.36-.03-.54-.24-5.71,2.43-11.48,6.95-14.97,4.11-3.17,9.91-4.54,15.03-3.51,.7,.14,1.38,.32,2.05,.55,.02-.13,.05-.26,.07-.38,.85-4.29,3.78-8.41,7.88-9.91,4.51-1.65,9.68-.98,13.58,.57,.31,.12,.61,.25,.9,.38,0-.2,.02-.4,.05-.61,.36-4.3,2.82-8.37,6.47-10.68,3.82-2.42,8.83-2.83,12.99-1.07,.11,.15,.2,.3,.3,.45,2.65,4.03,3.61,9.19,1.71,13.6,2.93,3.53,4.72,8,4.8,12.57,.04,2.26-.32,4.54-1.03,6.7Z"/>
              <g>
                <path class="cls-11" d="M233.33,73.67c.46,1.47,.74,2.99,.81,4.54,.02,.52,.83,.52,.81,0-.25-5.06-2.57-9.92-6.24-13.38-.02,.2-.04,.4-.05,.61-.29-.13-.59-.26-.9-.38,2.58,2.3,4.54,5.3,5.57,8.62Z"/>
                <path class="cls-11" d="M212.03,85.21c.03,.52,.84,.52,.81,0-.23-3.4-1.71-6.67-4.18-9.03-.72-.69-1.51-1.29-2.36-1.8-.02,.12-.05,.25-.07,.38-.67-.23-1.36-.41-2.05-.55,1.45,.59,2.77,1.45,3.91,2.54,2.31,2.21,3.73,5.27,3.95,8.46Z"/>
                <path class="cls-11" d="M195.65,92.76c-4.37-1.33-9.09-1.34-13.46-.06,0,.19,.02,.36,.03,.54-.27,.17-.53,.34-.78,.53,4.5-1.53,9.44-1.62,14.01-.23,.49,.15,.71-.63,.21-.78Z"/>
                <path class="cls-11" d="M247.74,86.86c-.5-.92-1.28-1.69-2.26-2.07-1.2-.47-2.51-.25-3.7,.14-1.3,.43-2.53,1-3.87,1.31-1.35,.31-2.74,.42-4.12,.34-2.61-.14-5.14-.99-7.31-2.45-2.25-1.51-4.04-3.64-5.18-6.09-.22-.47-.92-.06-.7,.41,1.6,3.44,4.47,6.21,7.93,7.71-7.51,1.92-15.33,3.75-23.07,2.21-2.14-.43-4.23-1.11-6.18-2.1-.46-.23-.87,.46-.41,.7,7.36,3.71,15.87,3.12,23.69,1.45,2.43-.52,4.84-1.14,7.24-1.75,.01,0,.02-.01,.03-.02,.34,.11,.69,.22,1.04,.3,2.48,.61,5.11,.61,7.59-.02,1.3-.33,2.51-.92,3.79-1.31,1.23-.38,2.55-.48,3.64,.31,2.51,1.81,1.77,5.28,.53,7.6-.24,.46,.45,.87,.7,.41,1.15-2.16,1.84-4.8,.61-7.07Z"/>
              </g>
              <path class="cls-11" d="M253.49,72.26c-.7-1.8-1.62-3.5-2.77-5.06,.06-.05,.12-.11,.15-.21,1.25-4.36,.6-9.17-1.79-13.03-.27-.44-.97-.04-.7,.41,2.27,3.69,2.9,8.24,1.7,12.41-.02,.08-.02,.14,0,.2-.19,.1-.3,.31-.14,.52,4.07,5.47,5.29,12.79,3.45,19.33-.52,1.83-1.28,3.58-2.27,5.21-.27,.45,.43,.85,.7,.41,3.64-6,4.18-13.67,1.66-20.2Z"/>
            </g>
          </g>
          <path class="cls-8" d="M317.37,120.76h-93.05c-16.2-1.79-32.42-3.57-48.62-5.37-1.29-2.77-1.85-5.88-1.55-8.93,.49-4.93,3.19-9.82,7.25-12.69,0,0,.02-.02,.04-.02,.18-.13,.36-.25,.55-.37,5.63,1.5,12.1,.12,17.98-1.24,14.08-3.25,28.54-5.84,42.92-6.06,3.7-.06,7.38,.03,11.06,.31,3.83,.3,7.65,.79,11.44,1.52,9.44,1.81,18.56,5.03,27.91,7.26,8.38,2,17.15,3.19,25.61,1.81,2.15,2.71,3.53,6.08,3.87,9.48,.52,5.26-1.54,10.71-5.42,14.3Z"/>
        </g>
        <g>
          <path class="cls-1" d="M175.47,216.11c-6.57,6.57-18.3,5.49-26.2-2.41-7.9-7.9-8.98-19.63-2.41-26.2,6.57-6.57,18.3-5.49,26.2,2.41,7.9,7.9,8.98,19.63,2.41,26.2Z"/>
          <g>
            <path class="cls-14" d="M174,206.55c-.39-2.44-.89-4.8-2.09-6.99-1.16-2.11-2.85-3.83-4.8-5.22-2.07-1.46-4.5-2.19-6.99-2.48-2.75-.32-5.41,.31-7.93,1.39-.79,.34-1.49,1.43-1.7,2.22-.24,.89-.13,2.07,.37,2.86,1.2,1.86,3.16,2.15,5.07,1.33-.8,.34-.15,.08,.03,.02,.22-.08,.45-.15,.67-.21,.23-.06,.45-.12,.68-.16,.11-.02,.18-.04,.24-.06,.38-.06,.79-.05,1.15-.05,.23,0,.47,0,.7,.02,.12,0,.2,0,.26,0,.37,.05,.76,.15,1.11,.25,.23,.06,.45,.13,.67,.21,.09,.03,.18,.06,.27,.1,.27,.1,.18,.06-.27-.12,.29,0,.84,.41,1.09,.56,.29,.17,.6,.45,.91,.61,.16,.14,.32,.28,.48,.43,.29,.27,.55,.57,.81,.86-.04-.05-.08-.1-.09-.15,.02,.05,.06,.1,.1,.15,0,.01,.02,.02,.03,.03,.24,.27,.1,.14-.02-.02,.1,.15,.23,.31,.32,.45,.2,.31,.39,.62,.55,.95,.01,.02,.07,.13,.14,.24,.03,.08,.06,.16,.09,.24,.17,.47,.31,.95,.43,1.43,.25,1.02,.41,2.05,.58,3.09,.31,1.92,2.8,3.16,4.56,2.59,2.08-.67,2.92-2.5,2.59-4.56Z"/>
            <polygon class="cls-14" points="164.74 202.12 164.74 202.13 164.74 202.12 164.74 202.12"/>
          </g>
        </g>
        <g>
          <path class="cls-1" d="M318.01,216.11c6.57,6.57,18.3,5.49,26.2-2.41,7.9-7.9,8.98-19.63,2.41-26.2-6.57-6.57-18.3-5.49-26.2,2.41-7.9,7.9-8.98,19.63-2.41,26.2Z"/>
          <g>
            <path class="cls-14" d="M322.07,211.11c1.76,.57,4.25-.67,4.56-2.59,.17-1.03,.33-2.07,.58-3.09,.12-.48,.26-.96,.43-1.43,.03-.08,.06-.16,.09-.24,.06-.11,.13-.22,.14-.24,.17-.32,.35-.64,.55-.95,.09-.14,.22-.29,.32-.45-.12,.16-.26,.29-.02,.02,0,0,.02-.02,.03-.03,.03-.05,.07-.1,.1-.15-.02,.04-.06,.1-.09,.15,.26-.29,.52-.59,.81-.86,.16-.15,.32-.29,.48-.43,.31-.16,.62-.44,.91-.61,.25-.15,.8-.56,1.09-.56-.45,.18-.54,.22-.27,.12,.09-.03,.18-.07,.27-.1,.22-.08,.45-.15,.67-.21,.35-.1,.74-.2,1.11-.25,.06,0,.14,0,.26,0,.23-.01,.47-.02,.7-.02,.36,0,.77,0,1.15,.05,.06,.02,.13,.04,.24,.06,.23,.05,.46,.1,.68,.16,.23,.06,.45,.13,.67,.21,.18,.06,.83,.33,.03-.02,1.92,.82,3.88,.53,5.07-1.33,.51-.79,.62-1.97,.37-2.86-.22-.79-.91-1.88-1.7-2.22-2.51-1.08-5.17-1.71-7.93-1.39-2.49,.29-4.92,1.01-6.99,2.48-1.95,1.38-3.64,3.11-4.8,5.22-1.2,2.19-1.7,4.55-2.09,6.99-.33,2.06,.51,3.89,2.59,4.56Z"/>
            <polygon class="cls-14" points="328.74 202.12 328.73 202.13 328.74 202.12 328.74 202.12"/>
          </g>
        </g>
        <g>
          <g id="flor4">
            <g>
              <path class="cls-10" d="M292.38,96.9c.02-.1,.05-.19,.07-.29,3.2-13.24,15.11-23.74,28.58-25.84,.17-.03,.33-.05,.5-.08-.02,.19-.06,.38-.09,.57-1.05,6.69-4.54,13.12-9.38,17.86-4.79,4.7-12.41,7.94-18.97,7.8-.24,0-.48,0-.72-.02Z"/>
              <path class="cls-12" d="M292.38,96.9c.02-.1,.05-.19,.07-.29,3.39-2.44,6.68-5,9.89-7.67,6.68-5.58,12.93-11.65,18.69-18.17,.17-.03,.33-.05,.5-.08-.02,.19-.06,.38-.09,.57-6.59,7.44-13.83,14.32-21.6,20.53-2.21,1.76-4.45,3.48-6.75,5.13-.24,0-.48,0-.72-.02Z"/>
            </g>
            <g>
              <path class="cls-10" d="M296.17,86.05c.02-.1,.05-.19,.07-.29,3.33-13.21-2.32-28.05-13.26-36.18-.14-.1-.27-.2-.4-.3-.07,.18-.13,.36-.19,.55-2.19,6.41-2.09,13.73-.02,20.17,2.05,6.39,7.29,12.81,13.15,15.74,.21,.12,.43,.22,.65,.32Z"/>
              <path class="cls-12" d="M296.17,86.05c.02-.1,.05-.19,.07-.29-1.86-3.73-3.59-7.53-5.18-11.39-3.31-8.04-6.02-16.33-8.08-24.79-.14-.1-.27-.2-.4-.3-.07,.18-.13,.36-.19,.55,2.37,9.66,5.57,19.11,9.55,28.23,1.13,2.59,2.32,5.15,3.58,7.68,.21,.12,.43,.22,.65,.32Z"/>
            </g>
            <path class="cls-12" d="M279.64,127.55c2.33-4.86,4.56-9.78,6.67-14.74,2.1-4.95,4.09-9.94,5.97-14.97,1.88-5.06,3.65-10.15,5.3-15.29,1.65-5.14,3.18-10.31,4.6-15.52s2.71-10.44,3.88-15.71c.15-.66,.29-1.33,.44-1.99,.09-.4-.53-.57-.61-.17-1.14,5.25-2.4,10.47-3.77,15.66-1.38,5.21-2.88,10.4-4.5,15.54-1.61,5.12-3.34,10.21-5.18,15.25-1.85,5.06-3.81,10.09-5.89,15.06-2.07,4.95-4.26,9.86-6.55,14.72-.29,.62-.58,1.23-.88,1.84-.18,.37,.37,.69,.55,.32Z"/>
            <g>
              <path class="cls-6" d="M304.25,55.91c-3.33-1.35-5.84-4.39-6.92-7.83-1.08-3.43-.8-7.21,.39-10.6,1.19-3.4,3.25-6.44,5.66-9.1,3.27,4.2,5.06,9.58,4.93,14.91,3.4-4.98,9.05-8.24,15.05-8.78-.58,5.27-1.84,10.56-5.02,14.81-3.18,4.25-9.17,8.59-14.09,6.59Z"/>
              <path class="cls-3" d="M293.81,33.24c-1.85,4.77-2.24,10.15-.72,15.04,1.52,4.88,5.01,9.2,9.65,11.36,4.64,2.16,10.37,2,14.7-.73,5.52-3.48,7.95-10.17,9.8-16.43-4.55,.61-8.88,2.26-12.67,4.86,1.23-6.55,.76-13.35-1.48-19.62-6.02,3.39-10.77,8.87-13.35,15.27-.5-4.21-2.56-7.18-5.92-9.75Z"/>
            </g>
          </g>
          <g id="flor5">
            <g>
              <path class="cls-10" d="M211.09,89.75c-.02-.1-.04-.19-.07-.29-3-13.29,3.02-27.98,14.16-35.84,.14-.1,.27-.19,.41-.29,.06,.18,.12,.37,.17,.55,2.03,6.46,1.75,13.77-.48,20.17-2.21,6.34-7.61,12.62-13.54,15.4-.21,.11-.43,.21-.65,.3Z"/>
              <path class="cls-12" d="M211.09,89.75c-.02-.1-.04-.19-.07-.29,1.95-3.69,3.77-7.44,5.46-11.26,3.51-7.96,6.43-16.18,8.7-24.58,.14-.1,.27-.19,.41-.29,.06,.18,.12,.37,.17,.55-2.61,9.59-6.04,18.97-10.25,27.98-1.19,2.56-2.45,5.09-3.77,7.59-.21,.11-.43,.21-.65,.3Z"/>
            </g>
            <g>
              <path class="cls-10" d="M209.69,78.35c-.02-.1-.04-.19-.06-.29-2.87-13.32-14.52-24.11-27.93-26.55-.17-.03-.33-.06-.5-.09,.02,.19,.05,.38,.07,.57,.88,6.71,4.21,13.23,8.93,18.09,4.67,4.82,12.21,8.25,18.76,8.27,.24,.01,.48,0,.72,0Z"/>
              <path class="cls-12" d="M209.69,78.35c-.02-.1-.04-.19-.06-.29-3.32-2.52-6.55-5.16-9.69-7.92-6.54-5.74-12.64-11.97-18.23-18.63-.17-.03-.33-.06-.5-.09,.02,.19,.05,.38,.07,.57,6.4,7.6,13.46,14.66,21.08,21.07,2.16,1.82,4.37,3.59,6.62,5.3,.24,.01,.48,0,.72,0Z"/>
            </g>
            <path class="cls-12" d="M213.28,122.87c-.07-5.39-.25-10.79-.56-16.17-.31-5.36-.74-10.72-1.29-16.07-.55-5.37-1.23-10.72-2.03-16.05-.8-5.33-1.72-10.65-2.76-15.94s-2.2-10.56-3.49-15.8c-.16-.66-.33-1.32-.49-1.98-.1-.39-.72-.28-.62,.12,1.31,5.21,2.5,10.45,3.56,15.71,1.07,5.29,2.03,10.6,2.86,15.93,.83,5.31,1.53,10.63,2.12,15.97,.59,5.36,1.05,10.73,1.39,16.11,.34,5.36,.56,10.73,.65,16.1,.01,.68,.02,1.36,.03,2.04,0,.41,.64,.45,.63,.04Z"/>
            <g>
              <path class="cls-6" d="M203.56,47.75c-3.59,.26-7.19-1.35-9.67-3.95-2.49-2.6-3.91-6.1-4.35-9.67-.44-3.57,.06-7.21,1.04-10.67,4.79,2.32,8.78,6.34,11.03,11.18,.84-5.97,4.46-11.4,9.6-14.54,1.82,4.98,3.03,10.28,2.06,15.5-.97,5.22-4.41,11.77-9.7,12.16Z"/>
              <path class="cls-3" d="M184.15,32.06c.46,5.09,2.49,10.1,6.02,13.8,3.53,3.71,8.57,6.02,13.68,5.9,5.11-.12,10.18-2.81,12.85-7.17,3.41-5.56,2.62-12.64,1.5-19.07-3.81,2.56-6.96,5.96-9.2,9.97-1.81-6.41-5.23-12.3-10.03-16.93-3.89,5.71-5.72,12.72-5.19,19.61-2.31-3.55-5.48-5.3-9.63-6.12Z"/>
            </g>
          </g>
        </g>
        <g>
          <path class="cls-1" d="M188.85,112.92c-11.11,12.72-17.81,31.67-17.81,58.76,0,61.23,34.2,97.77,76.39,97.77s76.39-36.54,76.39-97.77c0-25.31-5.85-43.52-15.69-56.18-39.77,1.73-79.56-.3-119.28-2.58Z"/>
          <g>
            <path class="cls-2" d="M196.53,170.53c3.68-2.35,7.83-4.21,12.35-4.93,4.51-.75,9.24-.29,13.63,1.03h.02c1.3,.4,2.04,1.77,1.65,3.07-.39,1.3-1.76,2.04-3.07,1.65-.09-.03-.19-.07-.28-.1-3.65-1.6-7.58-2.49-11.61-2.33-4.02,.14-8.06,1.34-11.84,3.15-.44,.21-.97,.03-1.18-.41-.19-.41-.05-.89,.32-1.12Z"/>
            <path class="cls-2" d="M298.32,170.53c-3.68-2.35-7.83-4.21-12.35-4.93-4.51-.75-9.24-.29-13.63,1.03h-.02c-1.3,.4-2.04,1.77-1.65,3.07,.39,1.3,1.76,2.04,3.07,1.65,.09-.03,.19-.07,.28-.1,3.65-1.6,7.58-2.49,11.61-2.33,4.02,.14,8.06,1.34,11.84,3.15,.44,.21,.97,.03,1.18-.41,.19-.41,.05-.89-.32-1.12Z"/>
            <path class="cls-14" d="M246.78,203.27c-.13-.41-.4-.89-.82-1.06-.57-.24-1.13-.43-1.76-.4-.64,.04-1.18,.19-1.76,.48-1.02,.51-1.73,1.51-2.05,2.58-.3,.99-.25,2.12,.07,3.1,.35,1.06,.93,1.94,1.63,2.81,.27,.33,.85,.52,1.26,.52,.44,0,.96-.19,1.26-.52,.31-.34,.54-.78,.52-1.26-.02-.49-.2-.85-.5-1.23l.08,.1c-.29-.38-.53-.79-.74-1.22-.07-.2-.14-.41-.18-.62-.01-.17-.01-.33,0-.5,.02-.1,.05-.21,.08-.31,.04-.07,.08-.14,.12-.21,0,0,.02-.02,.03-.03,.05-.03,.11-.07,.17-.1,.03,0,.06-.02,.09-.03,.03,0,.06,0,.09,0,.05,.01,.1,.02,.15,.04-.03-.01-.06-.03-.1-.04,.03,0,.05,0,.08,0,.33,.11,.66,.18,1.04,.07,.41-.11,.86-.43,1.06-.82,.22-.41,.33-.91,.18-1.37Z"/>
            <g>
              <circle class="cls-5" cx="282.2" cy="212.75" r="8.33" transform="translate(10.3 438.52) rotate(-76.72)"/>
              <circle class="cls-5" cx="212.65" cy="212.75" r="8.33" transform="translate(-88.15 212.68) rotate(-45)"/>
            </g>
            <g>
              <path class="cls-14" d="M263.74,223.16c-10.21,5.32-22.84,4.9-32.72-.97-1.43-.85-2.68,1.4-1.26,2.24,10.69,6.36,24.3,6.67,35.31,.93,1.47-.77,.13-2.96-1.34-2.2Z"/>
              <path class="cls-14" d="M251.61,235.54c-.2-.67-.93-1.07-1.6-.87-2.52,.74-5.3,.61-7.69-.44-.64-.28-1.39-.16-1.75,.49-.31,.56-.15,1.47,.49,1.75,3.06,1.34,6.47,1.61,9.68,.66,.67-.2,1.07-.93,.87-1.6Z"/>
            </g>
            <path class="cls-14" d="M293.49,184.11c-2.03,2.77-5.53,4.17-8.89,4.25-4.04,.1-7.87-1.52-11.24-3.62-1.28-.8-2.45,1.22-1.18,2.02,3.86,2.4,8.38,4.21,13.01,3.91,4.06-.27,7.89-2.07,10.32-5.38,.89-1.21-1.13-2.38-2.02-1.18Z"/>
            <path class="cls-14" d="M200.66,184.11c2.03,2.77,5.53,4.17,8.89,4.25,4.04,.1,7.87-1.52,11.24-3.62,1.28-.8,2.45,1.22,1.18,2.02-3.86,2.4-8.38,4.21-13.01,3.91-4.06-.27-7.89-2.07-10.32-5.38-.89-1.21,1.13-2.38,2.02-1.18Z"/>
          </g>
        </g>
        <path class="cls-2" d="M196.12,120.76c1.01,34.79-22.05,78.37-22.05,78.37-14.22-43.74-7.21-92.75-7.21-92.75,63.38-21.59,128.71-14.91,162.07,4.28,8.38,45.23-8.33,91.16-8.33,91.16-8.14-22.07-8.99-49.9-8.99-49.9-58.79,0-100.08-14.25-115.48-31.15Z"/>
      </g>
    </g>
  </g>
  <defs>
    <style>
        svg * {  transform-box: fill-box; animation-timing-function: ease-in-out; }
        .cls-1 { fill: #fbaf8e;}
        .cls-2 { fill: #643b2d;}
        .cls-3 { fill: #ffac00;}
        .cls-4 { isolation: isolate;}
        .cls-5 { fill: #fd9090;}
        .cls-6 { fill: #ff811d;}
        .cls-7 { fill: #006a73;}
        .cls-8 { fill: #f5d6d6; mix-blend-mode: multiply;}
        .cls-9 { fill: #ff8181;}
        .cls-10 { fill: #8ddce0;}
        .cls-11 { fill: #e94f4f;}
        .cls-12 { fill: #40bbbc;}
        .cls-13 { fill: #008fa1;}
        .cls-14 { fill: #e28054;}


        @keyframes flor1 { from{transform: translate(-55px, 55px)} to {transform: translate(0px, 0px)} }
        #flor1 { animation-name: flor1; animation-duration: 2s; animation-fill-mode: forwards;  transform: translate(-55px, 55px); }

        @keyframes flor2 { from{transform: translate(55px, 55px)} to {transform: translate(0px, 0px)} }
        #flor2 { animation-name: flor2; animation-duration: 2s; animation-fill-mode: forwards;  transform: translate(55px, 55px);}

        @keyframes flor3 { from{transform: translate(0px, 60px)} to {transform: translate(0px, 0px)} }
        #flor3 { animation-name: flor3; animation-duration: 2s; animation-fill-mode: forwards;  transform: translate(0px, 60px);}

        @keyframes flor4 { from{transform: translate(-20px, 70px)} to {transform: translate(0px, 0px)} }
        #flor4 { animation-name: flor4; animation-duration: 2s; animation-fill-mode: forwards;  transform: translate(-20px, 70px);}

        @keyframes flor5 { from{transform: translate(10px, 80px)} to {transform: translate(0px, 0px)} }
        #flor5 { animation-name: flor5; animation-duration: 2s; animation-fill-mode: forwards;  transform: translate(10px, 80px);}

        @keyframes planta1 { from{transform: rotate(-10deg)} to {transform: rotate(15deg)} }
        #planta1 { animation-name: planta1; animation-duration: 3s; animation-iteration-count: infinite; animation-direction: alternate; transform-origin: bottom left; }
        
        @keyframes planta2 { from{transform: rotate(5deg)} to {transform: rotate(-10deg)} }
        #planta2 { animation-name: planta2; animation-duration: 4s; animation-iteration-count: infinite; animation-direction: alternate; transform-origin: bottom right; }

        @keyframes planta3 { from{transform: rotate(0deg)} to {transform: rotate(15deg)} }
        #planta3 { animation-name: planta3; animation-duration: 2s; animation-iteration-count: infinite; animation-direction: alternate; transform-origin: bottom right; }

        @keyframes planta4 { from{transform: rotate(-8deg)} to {transform: rotate(0deg)} }
        #planta4 { animation-name: planta4; animation-duration: 2s; animation-iteration-count: infinite; animation-direction: alternate; transform-origin: bottom let; }

        @keyframes planta5 { from{transform: rotate(-5deg)} to {transform: rotate(2deg)} }
        #planta5 { animation-name: planta5; animation-duration: 1s; animation-iteration-count: infinite; animation-direction: alternate; transform-origin: bottom right; }

        @keyframes planta6 { from{transform: rotate(2deg)} to {transform: rotate(-5deg)} }
        #planta6 { animation-name: planta6; animation-duration: 1s; animation-iteration-count: infinite; animation-direction: alternate; transform-origin: bottom left; }
    </style>
  </defs>
</svg>